<svg height="492pt" viewBox="-59 0 492 492.11185" width="492pt" xmlns="http://www.w3.org/2000/svg"><path d="m280.238281 137.074219c-1.699219 6.683593-.613281 13.773437 3.007813 19.640625-.558594 2.546875-1.847656 4.875-3.710938 6.699218-2.367187 2.316407-2.414062 6.117188-.097656 8.484376 2.316406 2.371093 6.117188 2.414062 8.488281.097656 1.882813-1.851563 3.464844-3.984375 4.691407-6.328125.363281.203125.722656.414062 1.101562.601562 1.929688.964844 4.230469.820313 6.023438-.382812 1.789062-1.199219 2.800781-3.273438 2.640624-5.425781-.15625-2.152344-1.460937-4.050782-3.410156-4.976563-5.714844-2.8125-8.683594-9.246094-7.109375-15.417969.824219-3.210937-1.109375-6.480468-4.320312-7.304687-3.207031-.824219-6.476563 1.109375-7.304688 4.320312zm0 0"/><path d="m272.246094 99.605469c2.527344-.515625 5.136718-.449219 7.632812.191406 3.210938.824219 6.480469-1.109375 7.304688-4.320313.824218-3.207031-1.109375-6.476562-4.320313-7.300781-12.359375-3.164062-25.339843 2.085938-32.023437 12.957031-5.953125 1.574219-12.292969-.167968-16.605469-4.566406-1.496094-1.550781-3.707031-2.183594-5.796875-1.652344-2.089844.527344-3.734375 2.136719-4.308594 4.214844-.574218 2.074219.007813 4.300782 1.527344 5.828125 5.484375 5.597657 12.992188 8.75 20.828125 8.753907h.136719c-.542969 5.816406.671875 11.660156 3.488281 16.777343 1.609375 2.882813 5.242187 3.925781 8.132813 2.332031 2.894531-1.59375 3.953124-5.222656 2.375-8.121093-2.628907-4.785157-2.828126-10.535157-.53125-15.488281 2.296874-4.949219 6.808593-8.515626 12.160156-9.601563zm0 0"/><path d="m.0546875 230.8125c.03125 24.039062 14.9492185 45.542969 37.4531245 53.992188v14.449218c.003907 15.929688 8.476563 30.65625 22.246094 38.667969 13.769532 8.011719 30.757813 8.101563 44.609375.234375 2.125 2.3125 4.351563 4.539062 6.675781 6.683594 14.121094 13.105468 22.125 31.519531 22.066407 50.785156v52.96875c.015625 12.324219 10 22.308594 22.324219 22.324219h25.425781v15.195312c0 3.3125 2.6875 6 6 6s6-2.6875 6-6v-15.191406h25.421875c12.324218-.011719 22.3125-10 22.324218-22.324219v-53.046875c.144532-19.480469 8.34375-38.035156 22.65625-51.253906 2.097657-1.953125 4.125-4.015625 6.082032-6.136719 13.851562 7.867188 30.839844 7.777344 44.609375-.234375s22.242187-22.738281 22.246093-38.667969v-14.453124c19.21875-7.179688 33.167969-24.03125 36.628907-44.25 3.460937-20.21875-4.089844-40.753907-19.828125-53.914063 10.660156-9.722656 15.722656-24.152344 13.472656-38.402344-2.246094-14.253906-11.5-26.425781-24.636719-32.398437 5.550781-19.988282-.0625-41.421875-14.699219-56.125-14.636718-14.703125-36.042968-20.417969-56.058593-14.960938 2.402343-14.238281-3.414063-28.617187-15.039063-37.179687-11.625-8.566407-27.082031-9.859375-39.96875-3.34375-12.886718 6.511719-21.007812 19.722656-21.007812 34.164062v112.070313c-2.375-.171875-4.761719-.277344-7.160156-.300782-.351563 0-.699219 0-1.054688 0-2.75 0-5.480469.101563-8.199219.296876v-112.066407c.042969-14.46875-8.074219-27.722656-20.980469-34.261719-12.90625-6.539062-28.398437-5.242187-40.039062 3.347657-11.640625 8.59375-17.441406 23.011719-14.996094 37.273437-20.019531-5.472656-41.433594.234375-56.074218 14.945313-14.640626 14.707031-20.246094 36.148437-14.679688 56.144531-13.132812 5.96875-22.390625 18.140625-24.636719 32.394531-2.246093 14.25 2.816407 28.679688 13.476563 38.402344-13.09375 10.9375-20.6601565 27.113281-20.6601565 44.171875zm218.2226565 228.109375h-62.84375c-5.699219-.003906-10.316406-4.625-10.324219-10.324219v-1.019531h44.917969c3.3125 0 6-2.683594 6-6 0-3.3125-2.6875-6-6-6h-44.917969v-11.339844h12.761719c3.316406 0 6-2.6875 6-6 0-3.316406-2.683594-6-6-6h-12.761719v-10.605469h83.492187v10.605469h-40.976562c-3.316406 0-6 2.683594-6 6 0 3.3125 2.683594 6 6 6h40.976562v11.339844h-11.394531c-3.3125 0-6 2.6875-6 6 0 3.316406 2.6875 6 6 6h11.394531v1.019531c-.003906 5.699219-4.625 10.320313-10.324218 10.324219zm-31.0625-214.375c-2.523438.007813-4.945313-.996094-6.726563-2.785156-3.203125-3.210938-3.699219-8.234375-1.175781-12.007813 2.519531-3.769531 7.355469-5.234375 11.542969-3.496094 4.191406 1.738282 6.570312 6.191407 5.683593 10.640626-.882812 4.445312-4.789062 7.652343-9.324218 7.652343zm19.847656-206.152344c0-10.988281 6.839844-20.816406 17.140625-24.640625 10.304687-3.820312 21.898437-.828125 29.066406 7.5 7.164063 8.332032 8.394531 20.238282 3.078125 29.859375-1.460937.890625-2.890625 1.839844-4.277344 2.867188-2.667968 1.96875-3.230468 5.726562-1.261718 8.390625 1.96875 2.667968 5.722656 3.230468 8.390625 1.261718 17.398437-12.816406 41.40625-11.683593 57.519531 2.722657 16.109375 14.40625 19.917969 38.132812 9.121094 56.855469-1.082032 1.855468-1.089844 4.152343-.019532 6.015624 1.070313 1.863282 3.054688 3.011719 5.203126 3.011719 2.152343-.003906 4.136718-1.152343 5.203124-3.015625.417969-.722656.8125-1.453125 1.195313-2.1875 8.089844 3.851563 14.109375 11.03125 16.488281 19.667969 2.382813 8.640625.890625 17.886719-4.082031 25.339844-1.949219 2.945312-4.390625 5.53125-7.21875 7.648437-8.210937-4.300781-17.34375-6.542968-26.613281-6.535156-3.3125 0-6 2.6875-6 6s2.6875 6 6 6c16.363281-.078125 31.515625 8.609375 39.71875 22.765625s8.203125 31.621094 0 45.777344c-8.203125 14.160156-23.355469 22.84375-39.71875 22.769531-3.3125 0-6 2.683594-6 6 0 3.3125 2.6875 6 6 6 2.746094-.003906 5.488281-.203125 8.203125-.59375v11.378906c.007812 11.285156-5.796875 21.773438-15.363281 27.761719-9.5625 5.984375-21.535157 6.621094-31.679688 1.679687 22.828125-31.144531 28.046875-71.835937 13.808594-107.730468-14.238282-35.894532-45.933594-61.949219-83.902344-68.976563zm-20.214844 123.765625h.945313c38.691406.363282 73.714843 22.996094 89.941406 58.125s10.753906 76.464844-14.058594 106.160156c-2.675781 3.195313-5.546875 6.226563-8.597656 9.066407-15.214844 14.117187-24.574219 33.429687-26.222656 54.121093h-15.71875v-50.554687c.003906-5.40625 4.390625-9.792969 9.800781-9.796875 12.03125-.015625 21.785156-9.765625 21.796875-21.800781v-2.191407c9.308594-2.707031 15.652344-11.304687 15.496094-20.996093-.15625-9.6875-6.773438-18.078125-16.164063-20.484375-9.386718-2.40625-19.226562 1.765625-24.023437 10.183594-4.800781 8.421874-3.375 19.007812 3.480469 25.859374 2.558593 2.566407 5.730468 4.4375 9.210937 5.4375v2.191407c-.007813 5.410156-4.390625 9.792969-9.800781 9.800781-12.03125.011719-21.785156 9.765625-21.796875 21.796875v50.554687h-7.925781v-133.941406c9.308593-2.703125 15.660156-11.300781 15.507812-20.992187-.152344-9.695313-6.769531-18.085938-16.160156-20.496094-9.386719-2.410156-19.230469 1.753906-24.03125 10.175781-4.804688 8.421875-3.382813 19.011719 3.472656 25.867188 2.558594 2.566406 5.730469 4.441406 9.210938 5.445312v133.941406h-7.921876v-50.554687c-.011718-12.03125-9.765624-21.785156-21.800781-21.796875-5.410156-.007812-9.792969-4.390625-9.796875-9.800781v-2.191407c3.480469-1 6.648438-2.871093 9.210938-5.4375 6.871094-6.855468 8.304687-17.464843 3.5-25.898437-4.800782-8.4375-14.65625-12.617187-24.0625-10.207031-9.402344 2.410156-16.03125 10.816406-16.183594 20.523437s6.207031 18.316407 15.53125 21.019531v2.191407c.015625 12.035156 9.765625 21.785156 21.800781 21.800781 5.410157.003906 9.792969 4.390625 9.800781 9.796875v50.554687h-16.425781c-1.449219-20.492187-10.640625-39.660156-25.707031-53.621093-30.40625-27.90625-40.570312-71.613281-25.597656-110.070313 14.976562-38.457031 52.019531-63.785156 93.289062-63.78125zm45.164063 115.75c3.714843-3.714844 9.738281-3.714844 13.453125.003906 3.714844 3.714844 3.714844 9.738282 0 13.453126-3.714844 3.714843-9.738282 3.714843-13.453125 0-3.710938-3.71875-3.710938-9.738282 0-13.457032zm-103.046875 13.457032c-3.714844-3.714844-3.714844-9.738282 0-13.453126 3.714844-3.714843 9.738281-3.714843 13.453125 0 3.714843 3.714844 3.714843 9.738282 0 13.453126-1.777344 1.800781-4.199219 2.8125-6.726563 2.8125s-4.949218-1.011719-6.726562-2.8125zm-105.082032-119.324219c-9.433593-14.230469-5.566406-33.414063 8.644532-42.882813 1.203125-.792968 2.460937-1.503906 3.761718-2.125.382813.734375.777344 1.464844 1.195313 2.1875 1.664063 2.851563 5.324219 3.820313 8.1875 2.167969 2.859375-1.65625 3.84375-5.3125 2.199219-8.179687-10.808594-18.722657-7.003906-42.457032 9.113281-56.867188s40.128906-15.542969 57.53125-2.714844c2.664063 1.96875 6.421875 1.40625 8.390625-1.261718 1.96875-2.664063 1.402344-6.421876-1.261719-8.390626-1.390625-1.027343-2.820312-1.976562-4.28125-2.867187-5.316406-9.621094-4.085937-21.53125 3.082031-29.859375 7.167969-8.332031 18.761719-11.320312 29.066407-7.496094 10.300781 3.820313 17.140625 13.652344 17.136719 24.640625v113.578125c-53.230469 9.777344-91.886719 56.171875-91.898438 110.292969.03125 23.898437 7.675781 47.164063 21.828125 66.421875-10.144531 4.945312-22.125 4.316406-31.695313-1.667969-9.570312-5.984375-15.378906-16.476562-15.375-27.765625v-11.378906c2.71875.390625 5.457032.589844 8.199219.59375 3.316407 0 6-2.6875 6-6 0-3.316406-2.683593-6-6-6-16.359375.074219-31.511719-8.609375-39.714843-22.769531-8.203126-14.15625-8.203126-31.621094 0-45.777344 8.203124-14.15625 23.355468-22.84375 39.714843-22.765625 3.316407 0 6-2.6875 6-6s-2.683593-6-6-6c-9.265625-.007812-18.398437 2.234375-26.613281 6.535156-2.824219-2.117187-5.261719-4.703125-7.210938-7.648437zm0 0"/><path d="m77.371094 166.871094c.910156 0 1.808594-.207032 2.625-.605469.375-.1875.734375-.402344 1.097656-.601563 1.226562 2.339844 2.808594 4.476563 4.695312 6.328126 2.367188 2.316406 6.167969 2.273437 8.484376-.097657 2.316406-2.371093 2.273437-6.167969-.097657-8.484375-1.863281-1.828125-3.152343-4.15625-3.710937-6.703125 3.621094-5.867187 4.707031-12.953125 3.007812-19.636719-.824218-3.210937-4.09375-5.144531-7.304687-4.320312-3.210938.824219-5.144531 4.09375-4.320313 7.304688 1.574219 6.171874-1.390625 12.605468-7.109375 15.417968-2.511719 1.222656-3.847656 4.019532-3.21875 6.742188.628907 2.726562 3.054688 4.65625 5.851563 4.652344zm0 0"/><path d="m106.6875 99.796875c2.5-.644531 5.109375-.707031 7.636719-.191406 5.347656 1.082031 9.863281 4.648437 12.160156 9.601562s2.101563 10.699219-.527344 15.484375c-1.601562 2.902344-.546875 6.550782 2.355469 8.152344s6.550781.542969 8.152344-2.355469c2.816406-5.121093 4.03125-10.964843 3.488281-16.78125h.132813c7.839843-.003906 15.347656-3.15625 20.832031-8.753906 1.519531-1.527344 2.101562-3.753906 1.523437-5.832031-.574218-2.074219-2.21875-3.683594-4.308594-4.210938-2.085937-.53125-4.300781.101563-5.792968 1.652344-4.3125 4.398438-10.652344 6.140625-16.605469 4.566406-6.683594-10.871094-19.664063-16.125-32.023437-12.960937-3.210938.824219-5.144532 4.097656-4.320313 7.304687.824219 3.210938 4.09375 5.144532 7.304687 4.320313zm0 0"/></svg>