<?xml version="1.0" encoding="iso-8859-1"?>
<!-- Generator: Adobe Illustrator 19.0.0, SVG Export Plug-In . SVG Version: 6.00 Build 0)  -->
<svg version="1.1" id="Layer_1" xmlns="http://www.w3.org/2000/svg" xmlns:xlink="http://www.w3.org/1999/xlink" x="0px" y="0px"
	 viewBox="0 0 496 496" style="enable-background:new 0 0 496 496;" xml:space="preserve">
<g>
	<g>
		<g>
			<path d="M224,232h-16c0,8.824-7.176,16-16,16c-8.824,0-16-7.176-16-16h-16c0,17.648,14.352,32,32,32S224,249.648,224,232z"/>
			<path d="M424.504,443.608c-11.152-35.696-42.24-62.432-79.192-68.12L304,369.136v-6.208c19.176-9.384,35.656-23.368,48-40.584
				V328c0,13.232,10.768,24,24,24s24-10.768,24-24v-49.024c5.76-1.504,11.064-4.576,15.208-8.944
				c6.104-6.432,9.208-14.856,8.752-23.744c-0.728-13.864-10.68-25.144-23.96-28.864V184c0-67.32-44.032-124.48-104.784-144.4
				C291.232,17.128,271.6,0,248,0c-23.6,0-43.232,17.128-47.216,39.6C140.032,59.52,96,116.68,96,184v33.424
				c-13.288,3.728-23.232,15.008-23.96,28.872c-0.464,8.872,2.648,17.304,8.752,23.736c4.144,4.368,9.448,7.448,15.208,8.944V328
				c0,13.232,10.768,24,24,24s24-10.768,24-24v-5.664c12.344,17.216,28.824,31.2,48,40.584v6.208l-41.312,6.36
				c-3.352,0.52-6.632,1.264-9.88,2.12L140.8,377.6l-0.008,0.008c-32.52,8.552-59.152,33.512-69.184,65.664L52.616,496h390.768
				L424.504,443.608z M407.976,247.128c0.232,4.456-1.32,8.672-4.376,11.888c-3.056,3.208-7.168,4.984-11.6,4.984h-8v64
				c0,4.416-3.584,8-8,8c-4.416,0-8-3.584-8-8v-35.88c5.08-13.776,8-28.6,8-44.12v-16h14.64
				C399.768,232,407.536,238.792,407.976,247.128z M248,16c12.96,0,24.08,7.768,29.104,18.864C267.68,33.032,257.96,32,248,32
				c-9.96,0-19.68,1.032-29.104,2.864C223.92,23.768,235.04,16,248,16z M112,184c0-74.992,61.008-136,136-136s136,61.008,136,136v32
				h-8v-26.216C376,155.72,348.28,128,314.216,128c-14.856,0-29.232,5.36-40.472,15.096c-6.608,5.736-15.088,8.904-23.856,8.904
				h-3.776c-8.768,0-17.24-3.168-23.864-8.904C211.016,133.36,196.64,128,181.784,128C147.72,128,120,155.72,120,189.784V216h-8V184
				z M128,328c0,4.416-3.584,8-8,8s-8-3.584-8-8v-64h-8c-4.432,0-8.544-1.776-11.6-4.984c-3.056-3.216-4.608-7.44-4.376-11.88
				C88.464,238.792,96.232,232,105.36,232H120v16c0,15.52,2.92,30.336,8,44.12V328z M136,248v-58.216
				C136,164.536,156.536,144,181.784,144c11.016,0,21.664,3.976,29.992,11.184c9.52,8.264,21.728,12.816,34.344,12.816h3.776
				c12.616,0,24.824-4.552,34.344-12.816C292.552,147.976,303.2,144,314.216,144C339.464,144,360,164.536,360,189.784V248
				c0,61.76-50.24,112-112,112S136,309.76,136,248z M288,369.512v2.208l-38,25.336c-18.96-13.144-34.64-21.96-42-25.904v-1.64
				c12.6,4.16,26.024,6.488,40,6.488S275.4,373.672,288,369.512z M186.56,480l-53.912-38.504l-9.296,13.016L159.04,480H75.384
				l11.376-31.624c7.76-24.808,27.088-44.288,51.104-52.976l65.336,49l9.592-12.8l-54.744-41.056l40.576-6.24
				C211.2,390.96,274.736,426.248,317.648,480H186.56z M337.696,480c-21.536-29.824-49.2-54.496-73.848-72.952l34-22.664
				l45.024,6.92c23.256,3.576,43.728,17.104,56.488,36.416l-25.208,14.408l7.936,13.888l24.608-14.064
				c0.92,2.232,1.92,4.416,2.648,6.744L420.616,480H337.696z"/>
			<path d="M304,264c17.648,0,32-14.352,32-32h-16c0,8.824-7.176,16-16,16c-8.824,0-16-7.176-16-16h-16
				C272,249.648,286.352,264,304,264z"/>
			<rect x="240" y="192" width="16" height="16"/>
			<path d="M295.584,306.528l-15.168-5.064C280.352,301.656,273.936,320,248,320c-25.504,0-32.168-17.84-32.44-18.608l-15.152,5.144
				C200.816,307.736,210.664,336,248,336S295.184,307.736,295.584,306.528z"/>
			
				<rect x="218.495" y="443.517" transform="matrix(-0.8001 -0.5998 0.5998 -0.8001 136.0072 948.3445)" width="15.015" height="15.991"/>
			
				<rect x="350.979" y="451.905" transform="matrix(-0.4961 -0.8682 0.8682 -0.4961 137.6949 999.8787)" width="15.999" height="16.159"/>
		</g>
	</g>
</g>
<g>
</g>
<g>
</g>
<g>
</g>
<g>
</g>
<g>
</g>
<g>
</g>
<g>
</g>
<g>
</g>
<g>
</g>
<g>
</g>
<g>
</g>
<g>
</g>
<g>
</g>
<g>
</g>
<g>
</g>
</svg>
