<?xml version="1.0" encoding="iso-8859-1"?>
<!-- Generator: Adobe Illustrator 19.0.0, SVG Export Plug-In . SVG Version: 6.00 Build 0)  -->
<svg version="1.1" id="Capa_1" xmlns="http://www.w3.org/2000/svg" xmlns:xlink="http://www.w3.org/1999/xlink" x="0px" y="0px"
	 viewBox="0 0 512 512" style="enable-background:new 0 0 512 512;" xml:space="preserve">
<path style="fill:#F4BA64;" d="M299.215,404.201l4.989,14.719l-2.996,1.79c-28.941,17.289-65.098,17.039-93.797-0.65l0,0
	l5.375-15.859H109.5V502h293v-97.799H299.215z"/>
<path d="M372.47,476c-0.65,0-1.31-0.06-1.95-0.19s-1.27-0.33-1.87-0.58c-0.61-0.25-1.19-0.56-1.73-0.92
	c-0.55-0.36-1.06-0.78-1.52-1.24c-1.86-1.86-2.93-4.44-2.93-7.07c0-0.65,0.07-1.31,0.2-1.95s0.32-1.27,0.57-1.87
	c0.25-0.61,0.56-1.19,0.92-1.73c0.36-0.55,0.78-1.06,1.24-1.52s0.97-0.88,1.52-1.24c0.54-0.36,1.12-0.67,1.73-0.92
	c0.6-0.25,1.23-0.45,1.87-0.57c3.25-0.66,6.7,0.41,9.02,2.73c0.47,0.46,0.88,0.97,1.25,1.52c0.36,0.54,0.67,1.12,0.92,1.73
	c0.25,0.6,0.44,1.23,0.57,1.87c0.13,0.64,0.19,1.3,0.19,1.95c0,2.63-1.06,5.21-2.93,7.07C377.68,474.93,375.11,476,372.47,476z"/>
<path style="fill:#FFDAAE;" d="M221.264,114.421l-105.036,77.484v36.67c0,68.998,46.141,126.774,108.052,141.713l-16.87,49.771l0,0
	c28.699,17.689,64.856,17.939,93.797,0.65l2.996-1.79l-16.483-48.632c61.911-14.94,108.051-72.715,108.051-141.713v-36.67
	C369.41,188.797,221.264,114.421,221.264,114.421z"/>
<path style="fill:#FF5A5A;" d="M444.5,295.493V174.75C444.5,83.761,370.739,10,279.75,10h-47.5C141.261,10,67.5,83.761,67.5,174.75
	v120.743c-27.271,3.005-48.488,26.112-48.488,54.184l0,0c0,30.113,24.411,54.524,54.524,54.524h139.25l11.494-33.913
	c-61.911-14.94-108.052-72.715-108.052-141.713v-36.67l105.036-77.484c0,0,148.146,74.375,174.507,77.484v36.67
	c0,68.998-46.141,126.774-108.051,141.713l11.494,33.913h139.25c30.113,0,54.524-24.411,54.524-54.524l0,0
	C492.988,321.605,471.771,298.498,444.5,295.493z"/>
<path d="M454.5,287.165V174.75C454.5,78.393,376.107,0,279.75,0h-47.5C135.893,0,57.5,78.393,57.5,174.75v112.415
	c-28.191,7.165-48.488,32.623-48.488,62.511c0,35.579,28.945,64.524,64.524,64.524H99.5V502c0,5.523,4.477,10,10,10h293
	c5.523,0,10-4.477,10-10v-87.799h25.964c35.579,0,64.524-28.945,64.524-64.524C502.988,319.789,482.691,294.331,454.5,287.165z
	 M392.5,492h-273v-16h211.392c5.523,0,10-4.477,10-10s-4.477-10-10-10H119.5v-41.799h79.337l-0.898,2.649
	c-1.496,4.414,0.256,9.277,4.224,11.723c31.993,19.72,71.91,19.995,104.173,0.722l2.996-1.789c4.046-2.417,5.855-7.331,4.342-11.795
	l-0.511-1.509H392.5V492z M285.375,360.567c-2.73,0.659-5.058,2.436-6.413,4.896c-1.356,2.46-1.614,5.376-0.712,8.036l11.495,33.913
	l2.354,6.944c-22.759,11.923-49.591,12.239-72.534,1l2.693-7.945l11.494-33.913c0.901-2.66,0.643-5.576-0.712-8.036
	c-1.355-2.46-3.683-4.236-6.413-4.895c-59.112-14.264-100.397-68.542-100.397-131.992v-31.62l96.042-70.849
	c27.153,13.545,126.856,62.765,163.502,73.691v28.777C385.772,292.025,344.487,346.303,285.375,360.567z M438.464,394.201H402.5
	h-96.116l-5.816-17.157c28.253-9.156,53.633-27.067,72.306-51.225c21.214-27.446,32.897-61.981,32.897-97.244v-36.669
	c0-5.07-3.794-9.337-8.829-9.931c-17.931-2.114-114.521-48.039-171.192-76.49c-3.365-1.69-7.393-1.346-10.423,0.89l-105.036,77.484
	c-2.555,1.885-4.063,4.872-4.063,8.047v36.669c0,35.263,11.683,69.798,32.897,97.244c18.672,24.158,44.053,42.069,72.306,51.225
	l-5.815,17.157H109.5H73.536c-24.551,0-44.524-19.973-44.524-44.524c0-22.737,17.017-41.757,39.584-44.244
	c5.068-0.559,8.905-4.841,8.905-9.94V174.75C77.5,89.42,146.92,20,232.25,20h47.5c85.33,0,154.75,69.42,154.75,154.75v120.743
	c0,5.099,3.836,9.381,8.905,9.94c22.566,2.486,39.583,21.507,39.583,44.244C482.988,374.228,463.015,394.201,438.464,394.201z"/>
<path d="M256,313.898c-17.597,0-35.194-5.407-50.211-16.222c-4.482-3.228-5.498-9.477-2.271-13.959
	c3.228-4.482,9.476-5.498,13.959-2.271c23.041,16.595,54.004,16.595,77.045,0c4.482-3.228,10.731-2.211,13.959,2.271
	c3.228,4.482,2.211,10.731-2.27,13.959C291.194,308.491,273.597,313.898,256,313.898z"/>
<path d="M342.556,226.699c-2.025,0-4.067-0.613-5.836-1.886c-9.422-6.787-22.085-6.788-31.508,0
	c-4.481,3.227-10.73,2.211-13.959-2.27c-3.228-4.482-2.211-10.731,2.27-13.959c16.414-11.821,38.471-11.821,54.885,0
	c4.481,3.228,5.498,9.477,2.271,13.959C348.725,225.255,345.662,226.699,342.556,226.699z"/>
<path d="M212.624,226.699c-2.025,0-4.067-0.613-5.836-1.886c-9.423-6.788-22.086-6.787-31.508,0
	c-4.481,3.227-10.73,2.211-13.959-2.27c-3.228-4.482-2.211-10.731,2.27-13.959c16.415-11.822,38.472-11.821,54.885,0
	c4.481,3.228,5.498,9.477,2.271,13.959C218.794,225.255,215.731,226.699,212.624,226.699z"/>
<g>
</g>
<g>
</g>
<g>
</g>
<g>
</g>
<g>
</g>
<g>
</g>
<g>
</g>
<g>
</g>
<g>
</g>
<g>
</g>
<g>
</g>
<g>
</g>
<g>
</g>
<g>
</g>
<g>
</g>
</svg>
