<svg height="512pt" viewBox="-34 0 511 512" width="512pt" xmlns="http://www.w3.org/2000/svg"><path d="m222.132812 404.351562h-67.253906s-45.054687 49.589844-45.054687 100.148438h112.308593l23.5625-50.074219zm0 0" fill="#454f59"/><path d="m154.878906 404.351562s-45.054687 49.589844-45.054687 100.148438h30c0-50.558594 45.054687-100.148438 45.054687-100.148438zm0 0" fill="#363f50"/><path d="m334.4375 504.5h-112.304688v-100.148438h67.25s45.054688 49.589844 45.054688 100.148438zm0 0" fill="#363f50"/><path d="m249.085938 34.453125c0 14.882813-12.070313 26.949219-26.953126 26.949219-14.886718 0-26.953124-12.066406-26.953124-26.949219 0-14.886719 12.066406-26.953125 26.953124-26.953125 14.882813 0 26.953126 12.066406 26.953126 26.953125zm0 0" fill="#ffd46a"/><path d="m414.382812 192.773438-192.25-25.730469-192.253906 25.730469c-6.601562 19.957031-10.167968 41.285156-10.167968 63.425781h404.84375c0-22.140625-3.570313-43.46875-10.171876-63.425781zm0 0" fill="#454f59"/><path d="m436.261719 266.371094c0 23.316406-18.902344 42.222656-42.222657 42.222656-23.316406 0-42.222656-18.90625-42.222656-42.222656 0-23.320313 18.90625-42.222656 42.222656-42.222656 23.320313 0 42.222657 18.902343 42.222657 42.222656zm0 0" fill="#ffbd86"/><path d="m394.039062 256.199219c0 94.941406-76.964843 171.90625-171.90625 171.90625-94.941406 0-171.910156-76.964844-171.910156-171.90625 0-94.941407 76.96875-171.910157 171.910156-171.910157 94.941407 0 171.90625 76.96875 171.90625 171.910157zm0 0" fill="#fed2a4"/><path d="m80.222656 256.199219c0-89.886719 68.992188-163.648438 156.910156-171.25-4.945312-.425781-9.945312-.660157-15-.660157-84.03125 0-153.96875 60.296876-168.9375 139.984376-.949218-.078126-1.925781-.125-2.972656-.125-23.316406 0-42.222656 18.902343-42.222656 42.222656 0 23.316406 18.90625 42.222656 42.222656 42.222656 3.003906 0 5.597656-.320312 7.847656-.917969 21.875 69.792969 87.054688 120.429688 164.0625 120.429688 5.054688 0 10.054688-.230469 15-.65625-87.917968-7.601563-156.910156-81.363281-156.910156-171.25zm0 0" fill="#ffbd86"/><g fill="#ff8cb5"><path d="m318.464844 300.636719h-22.527344c-4.144531 0-7.5-3.359375-7.5-7.5s3.355469-7.5 7.5-7.5h22.527344c4.140625 0 7.5 3.359375 7.5 7.5s-3.359375 7.5-7.5 7.5zm0 0"/><path d="m148.328125 300.636719h-22.527344c-4.144531 0-7.5-3.359375-7.5-7.5s3.355469-7.5 7.5-7.5h22.527344c4.140625 0 7.5 3.359375 7.5 7.5s-3.359375 7.5-7.5 7.5zm0 0"/><path d="m131.246094 153.007812-75.695313-11.695312c30.671875-44.332031 78.566407-75.890625 133.921875-84.890625zm0 0"/><path d="m254.789062 56.421875c55.359376 9 103.25 40.558594 133.925782 84.890625l-75.699219 11.695312zm0 0"/></g><path d="m313.015625 153.007812-90.882813 14.035157-90.882812-14.035157c8.492188-49.0625 57.390625-95.792968 58.226562-96.585937.007813-.011719.007813-.011719.007813-.011719 10.628906-1.730468 21.53125-2.632812 32.648437-2.632812 11.113282 0 22.019532.902344 32.644532 2.632812 0 0 0 0 .011718.011719.832032.792969 49.734376 47.523437 58.226563 96.585937zm0 0" fill="#f8485e"/><path d="m414.382812 192.773438h-384.503906c6.113282-18.46875 14.808594-35.769532 25.671875-51.460938h333.164063c10.859375 15.695312 19.558594 32.992188 25.667968 51.460938zm0 0" fill="#fc5c70"/><path d="m299.699219 252.285156v16.539063c0 4.144531 3.359375 7.5 7.5 7.5 4.144531 0 7.5-3.355469 7.5-7.5v-16.539063c0-4.144531-3.355469-7.5-7.5-7.5-4.140625 0-7.5 3.359375-7.5 7.5zm0 0"/><path d="m137.0625 276.324219c4.140625 0 7.5-3.355469 7.5-7.5v-16.539063c0-4.144531-3.359375-7.5-7.5-7.5s-7.5 3.355469-7.5 7.5v16.539063c0 4.144531 3.359375 7.5 7.5 7.5zm0 0"/><path d="m242.28125 279.824219c-3.117188-2.726563-7.855469-2.410157-10.582031.710937-2.3125 2.648438-5.800781 4.167969-9.566407 4.167969-3.765624 0-7.253906-1.519531-9.570312-4.167969-2.722656-3.121094-7.460938-3.4375-10.582031-.710937-3.117188 2.726562-3.4375 7.464843-.710938 10.582031 5.164063 5.910156 12.769531 9.296875 20.863281 9.296875s15.699219-3.386719 20.859376-9.296875c2.726562-3.117188 2.410156-7.855469-.710938-10.582031zm0 0"/><path d="m50.222656 316.09375c.917969 0 1.839844-.035156 2.765625-.085938 14.988281 42.261719 45.386719 77.292969 84.414063 98.292969-4.464844 6.140625-9.695313 13.941407-14.726563 22.886719-2.03125 3.609375-.753906 8.183594 2.855469 10.214844 3.613281 2.03125 8.183594.75 10.214844-2.859375 5.3125-9.4375 10.863281-17.527344 15.359375-23.558594 18.175781 7.859375 37.28125 12.566406 57.015625 14.078125 2.167968.164062 4.339844.304688 6.511718.390625v61.546875h-96.957031c.71875-7.78125 2.53125-16.003906 5.417969-24.527344 1.324219-3.925781-.78125-8.183594-4.703125-9.507812-3.925781-1.328125-8.179687.777344-9.507813 4.699218-4.351562 12.871094-6.558593 25.265626-6.558593 36.835938 0 4.140625 3.359375 7.5 7.5 7.5h224.613281c4.144531 0 7.5-3.359375 7.5-7.5 0-36.101562-21.472656-71.433594-35.082031-90.195312 39.03125-21 69.429687-56.03125 84.421875-98.296876.921875.050782 1.84375.085938 2.761718.085938 27.417969 0 49.722657-22.308594 49.722657-49.722656 0-12.898438-4.9375-24.664063-13.019531-33.507813-1.605469-14.445312-4.695313-28.714843-9.238282-42.445312-6.273437-18.957031-15.230468-36.914063-26.621094-53.371094-32.402343-46.832031-82.976562-78.902344-138.769531-88.007813-.046875-.007812-.085937-.023437-.128906-.03125-.820313-.132812-1.644531-.25-2.464844-.375 1.996094-4.410156 3.0625-9.238281 3.0625-14.179687.003907-19-15.453125-34.453125-34.449219-34.453125-18.996093 0-34.453124 15.453125-34.453124 34.453125 0 4.9375 1.070312 9.769531 3.0625 14.179687-.820313.125-1.640626.242188-2.460938.375-.042969.007813-.082031.023438-.125.03125-55.792969 9.101563-106.367188 41.171876-138.773438 88.003907-11.390624 16.460937-20.347656 34.417969-26.625 53.378906-4.539062 13.726563-7.628906 27.992187-9.238281 42.441406-8.082031 8.84375-13.019531 20.609375-13.019531 33.507813 0 27.414062 22.304688 49.722656 49.722656 49.722656zm-19.777344-95.363281c1.273438-6.914063 2.921876-13.746094 4.933594-20.457031h16.242188c-.464844 1.414062-.902344 2.832031-1.332032 4.253906-1.210937 4.039062-2.28125 8.109375-3.203124 12.214844-.527344.03125-1.046876.082031-1.570313.132812-5.1875.492188-10.289063 1.777344-15.070313 3.855469zm17.9375 80.3125c-18.292968-.960938-32.882812-16.144531-32.882812-34.675781 0-16.542969 12.257812-31.203126 28.523438-34.160157.101562-.019531.203124-.035156.304687-.054687-.53125 3.96875-.933594 7.960937-1.199219 11.980468 0 .019532-.003906.039063-.003906.058594-1.328125 17.707032.300781 35.789063 4.34375 53.0625.296875 1.265625.589844 2.53125.914062 3.789063zm244.773438 119.945312c11.453125 15.382813 30.621094 45.257813 33.433594 76.011719h-96.957032v-61.546875c2.160157-.085937 4.347657-.390625 6.507813-.390625 19.734375-1.511719 38.839844-6.214844 57.015625-14.074219zm120.664062-200.257812c-4.773437-2.074219-9.894531-3.371094-15.074218-3.855469-.523438-.050781-1.042969-.097656-1.566406-.132812-.921876-4.105469-1.992188-8.179688-3.207032-12.21875-.429687-1.417969-.867187-2.839844-1.332031-4.25h16.246094c2.007812 6.710937 3.660156 13.546874 4.933593 20.457031zm-17.9375 80.3125c4.792969-18.613281 6.292969-37.695313 5.253907-56.855469 0-.019531 0-.035156 0-.054688-.269531-4.015624-.671875-8.011718-1.203125-11.980468.4375.078125.875.15625 1.3125.25 15.839844 3.359375 27.515625 17.789062 27.515625 33.964844 0 18.53125-14.585938 33.714843-32.878907 34.675781zm-22.15625-167.230469h-58.015624c-2.742188-7.886719-6.214844-15.496094-10.140626-22.859375-7.859374-14.746094-17.613281-28.460937-28.351562-41.242187-.171875-.207032-.355469-.429688-.527344-.636719 37.882813 11.121093 71.96875 33.804687 97.035156 64.738281zm-229.140624-.085938c8.890624-22.425781 23.160156-42.300781 39.078124-60.257812 3.03125-3.425781 6.132813-6.789062 9.367188-10.023438 4.039062-.605468 8.109375-1.078124 12.191406-1.429687 11.148438-.957031 22.652344-1.238281 33.792969 0 4.09375.351563 8.167969.824219 12.21875 1.429687.011719.015626.023437.027344.035156.039063 19.941407 19.949219 37.882813 43.929687 48.410157 70.25.011718.027344.023437.050781.03125.078125h-155.160157c.011719-.027344.023438-.058594.035157-.085938zm62.539062-86.910156c-2.851562-3.460937-4.445312-7.832031-4.445312-12.363281 0-10.726563 8.726562-19.453125 19.453124-19.453125 10.726563 0 19.453126 8.726562 19.453126 19.453125 0 4.53125-1.59375 8.902344-4.445313 12.363281-.480469-.03125-10.480469-.539062-15.007813-.539062-4.519531-.003906-14.523437.503906-15.007812.539062zm-39.546875 22.257813c-.03125.039062-2.5 3.003906-2.574219 3.097656-15.15625 18.382813-28.464844 38.796875-36.359375 61.398437-.027343.078126-.0625.160157-.089843.242188h-58.015626c25.066407-30.9375 59.152344-53.621094 97.039063-64.738281zm-108.050781 79.738281h325.207031c7.605469 11.472656 13.960937 23.6875 18.96875 36.464844h-69.394531c-4.144532 0-7.5 3.355468-7.5 7.5 0 4.140625 3.355468 7.5 7.5 7.5h42.460937c.25.691406.5 1.378906.738281 2.074218 8.234376 23.808594 10.902344 49.789063 7.6875 74.917969-9.667968 75.25-70.410156 134.742188-146.242187 142.484375-.046875.003906-.09375.007813-.140625.011719-11.078125 1.144531-22.28125 1.125-33.359375 0-.046875-.003906-.09375-.007813-.144531-.011719-75.828125-7.742187-136.570313-67.234375-146.238282-142.484375-3.339843-25.847656-.421874-52.480469 8.425782-76.992187h236.8125c4.140625 0 7.5-3.359375 7.5-7.5 0-4.144532-3.359375-7.5-7.5-7.5h-263.75c5.007812-12.777344 11.363281-24.996094 18.96875-36.464844zm0 0"/></svg>