<svg height="512pt" viewBox="0 0 512 512" width="512pt" xmlns="http://www.w3.org/2000/svg"><path d="m255.75 398.535156h-76.195312s-51.046876 56.183594-51.046876 113.464844h127.242188l26.699219-56.730469zm0 0" fill="#fc5c70"/><path d="m179.554688 398.535156s-51.046876 56.1875-51.046876 113.464844h30.90625c0-57.28125 51.046876-113.464844 51.046876-113.464844zm0 0" fill="#f8485e"/><path d="m382.992188 512h-127.242188v-113.464844h76.195312s51.046876 56.183594 51.046876 113.464844zm0 0" fill="#f8485e"/><path d="m136.863281 68.433594c0 37.792968-30.636719 68.429687-68.429687 68.429687-37.796875 0-68.433594-30.636719-68.433594-68.429687 0-37.796875 30.636719-68.433594 68.433594-68.433594 37.792968 0 68.429687 30.636719 68.429687 68.433594zm0 0" fill="#454f59"/><path d="m89.035156 116.261719c-37.792968 0-68.429687-30.640625-68.429687-68.433594 0-13.625 3.996093-26.304687 10.855469-36.96875-18.917969 12.175781-31.460938 33.402344-31.460938 57.574219 0 37.792968 30.636719 68.429687 68.433594 68.429687 24.167968 0 45.394531-12.542969 57.570312-31.460937-10.664062 6.859375-23.34375 10.859375-36.96875 10.859375zm0 0" fill="#363f50"/><path d="m511.5 68.433594c0 37.792968-30.636719 68.429687-68.429688 68.429687-37.796874 0-68.433593-30.636719-68.433593-68.429687 0-37.796875 30.636719-68.433594 68.433593-68.433594 37.792969 0 68.429688 30.636719 68.429688 68.433594zm0 0" fill="#454f59"/><path d="m395.242188 89.035156c0-37.792968 30.636718-68.429687 68.429687-68.429687 13.625 0 26.304687 3.996093 36.96875 10.855469-12.175781-18.917969-33.402344-31.460938-57.570313-31.460938-37.796874 0-68.433593 30.636719-68.433593 68.433594 0 24.167968 12.542969 45.394531 31.460937 57.570312-6.859375-10.664062-10.855468-23.34375-10.855468-36.96875zm0 0" fill="#363f50"/><path d="m145.359375 25.679688c-14.261719-7.824219-31.84375-6.554688-44.726563 3.378906-27.574218 21.265625-50.683593 48.046875-67.65625 78.679687-8.558593 15.449219-6.335937 34.636719 5.574219 47.683594l9.792969 10.726563 111.023438-132.78125zm0 0" fill="#ffd46a"/><path d="m58.644531 145.546875-9.792969-10.730469c-9.535156-10.449218-12.855468-24.832031-9.402343-38.085937-2.246094 3.613281-4.40625 7.28125-6.472657 11.007812-8.558593 15.449219-6.335937 34.636719 5.574219 47.683594l9.792969 10.726563 111.023438-132.78125-4.746094-2.605469zm0 0" fill="#ffa92d"/><path d="m366.140625 25.679688c14.261719-7.824219 31.84375-6.554688 44.730469 3.378906 27.570312 21.265625 50.679687 48.046875 67.652344 78.679687 8.558593 15.449219 6.335937 34.636719-5.574219 47.683594l-9.792969 10.726563-111.027344-132.78125zm0 0" fill="#ffd46a"/><path d="m383.035156 53.96875 14.011719-7.683594c9.261719-5.082031 19.914063-6.304687 29.78125-3.832031-5.136719-4.671875-10.453125-9.148437-15.957031-13.394531-12.886719-9.933594-30.46875-11.203125-44.730469-3.378906l-14.011719 7.6875 111.027344 132.78125 7.140625-7.820313zm0 0" fill="#ffa92d"/><path d="m26.996094 230.683594c0-126.136719 102.617187-228.753906 228.753906-228.753906s228.753906 102.617187 228.753906 228.753906zm0 0" fill="#454f59"/><path d="m273.777344 2.636719c-5.949219-.464844-11.960938-.707031-18.027344-.707031-126.136719 0-228.753906 102.617187-228.753906 228.753906h36.054687c0-120.070313 92.988281-218.824219 210.726563-228.046875zm0 0" fill="#363f50"/><path d="m498.351562 242.207031c0 26.417969-21.414062 47.835938-47.835937 47.835938-26.417969 0-47.835937-21.417969-47.835937-47.835938 0-26.421875 21.417968-47.835937 47.835937-47.835937 26.421875 0 47.835937 21.414062 47.835937 47.835937zm0 0" fill="#ffbd86"/><path d="m369.035156 165.039062-16.902344-41.78125-16.90625 41.78125h-158.953124l-16.90625-41.78125-16.902344 41.78125h-70.128906c-7.34375 20.511719-11.351563 42.609376-11.351563 65.644532 0 107.566406 87.199219 194.765625 194.765625 194.765625s194.765625-87.199219 194.765625-194.765625c0-23.035156-4.011719-45.132813-11.351563-65.644532zm0 0" fill="#fed2a4"/><path d="m91.890625 230.683594c0-23.035156 4.007813-45.132813 11.351563-65.644532h-30.90625c-3.402344 9.503907-6.078126 19.351563-7.980469 29.46875-1.082031-.082031-2.191407-.140624-3.371094-.140624-26.421875 0-47.839844 21.417968-47.839844 47.839843 0 26.417969 21.417969 47.835938 47.839844 47.835938 3.363281 0 6.308594-.351563 8.894531-1.011719 24.792969 79.0625 98.632813 136.417969 185.871094 136.417969 5.199219 0 10.355469-.210938 15.453125-.609375-100.34375-7.875-179.3125-91.792969-179.3125-194.15625zm0 0" fill="#ffbd86"/><path d="m352.128906 250.449219c-4.265625 0-7.726562-3.460938-7.726562-7.726563v-18.742187c0-4.265625 3.460937-7.726563 7.726562-7.726563 4.269532 0 7.726563 3.460938 7.726563 7.726563v18.742187c0 4.265625-3.457031 7.726563-7.726563 7.726563zm0 0" fill="#454f59"/><path d="m364.890625 277.992188h-25.523437c-4.265626 0-7.726563-3.457032-7.726563-7.726563 0-4.265625 3.460937-7.726563 7.726563-7.726563h25.523437c4.269531 0 7.726563 3.460938 7.726563 7.726563 0 4.269531-3.457032 7.726563-7.726563 7.726563zm0 0" fill="#ff8cb5"/><path d="m159.367188 250.449219c-4.265626 0-7.722657-3.460938-7.722657-7.726563v-18.742187c0-4.265625 3.457031-7.726563 7.722657-7.726563 4.269531 0 7.726562 3.460938 7.726562 7.726563v18.742187c0 4.265625-3.457031 7.726563-7.726562 7.726563zm0 0" fill="#454f59"/><path d="m172.132812 277.992188h-25.523437c-4.269531 0-7.726563-3.457032-7.726563-7.726563 0-4.265625 3.457032-7.726563 7.726563-7.726563h25.523437c4.265626 0 7.726563 3.460938 7.726563 7.726563 0 4.269531-3.460937 7.726563-7.726563 7.726563zm0 0" fill="#ff8cb5"/><path d="m255.75 276.933594c-8.949219 0-17.351562-3.742188-23.054688-10.265625-2.808593-3.214844-2.480468-8.09375.730469-10.902344 3.214844-2.808594 8.09375-2.480469 10.902344.730469 2.769531 3.167968 6.933594 4.984375 11.421875 4.984375s8.652344-1.816407 11.421875-4.984375c2.808594-3.210938 7.6875-3.539063 10.902344-.730469 3.210937 2.808594 3.539062 7.6875.730469 10.902344-5.703126 6.523437-14.105469 10.265625-23.054688 10.265625zm0 0" fill="#454f59"/></svg>